# xmcd
# 
# Track frame offsets:
#     150
#     17927
#     44072
#     59034
# 
# Disc length: 1126
# 
# Revision: 0
# Processed by: cddbd v1.5.2PL0 Copyright (c) Steve Scherf et al.
# Submitted via: fre:ac v1.0.17
# 
DISCID=3a046404
DTITLE=Pilate - The Window EP
DYEAR=2005
DGENRE=
TTITLE0=Into Your Hideout
TTITLE1=Don't Waste Your Breath
TTITLE2=Overrated
TTITLE3=Alright
EXTD=
EXTT0=
EXTT1=
EXTT2=
EXTT3=
PLAYORDER=
